<?xml version="1.0" encoding="UTF-8" standalone="no"?>
<!-- Created with Inkscape (http://www.inkscape.org/) -->

<svg
   width="115.549mm"
   height="130.30972mm"
   viewBox="0 0 115.549 130.30972"
   version="1.1"
   id="svg1"
   xml:space="preserve"
   inkscape:export-filename="p-small.svg"
   inkscape:export-xdpi="96"
   inkscape:export-ydpi="96"
   xmlns:inkscape="http://www.inkscape.org/namespaces/inkscape"
   xmlns:sodipodi="http://sodipodi.sourceforge.net/DTD/sodipodi-0.dtd"
   xmlns="http://www.w3.org/2000/svg"
   xmlns:svg="http://www.w3.org/2000/svg"><sodipodi:namedview
     id="namedview1"
     pagecolor="#ffffff"
     bordercolor="#000000"
     borderopacity="0.25"
     inkscape:showpageshadow="2"
     inkscape:pageopacity="0.0"
     inkscape:pagecheckerboard="0"
     inkscape:deskcolor="#d1d1d1"
     inkscape:document-units="mm"><inkscape:page
       x="0"
       y="0"
       width="115.549"
       height="130.30972"
       id="page2"
       margin="0"
       bleed="0" /></sodipodi:namedview><defs
     id="defs1" /><g
     inkscape:label="Ebene 1"
     inkscape:groupmode="layer"
     id="layer1"
     transform="translate(220.53237,27.789086)"><path
       style="fill:#ffffff"
       d="m -191.83501,87.581279 v -14.93937 l 1.01946,-0.029 c 1.8496,-0.0526 5.09881,-2.007 6.98453,-4.20123 2.13731,-2.48697 3.28384,-4.43657 4.52545,-7.69521 0.51751,-1.35819 1.078,-2.78694 1.24554,-3.175 0.16755,-0.38805 0.88173,-2.7693 1.58707,-5.29166 0.70533,-2.52236 1.41605,-4.90361 1.57937,-5.29167 0.16441,-0.39067 0.30759,11.85061 0.32081,27.42847 l 0.0239,28.134031 h -8.64306 -8.64305 z m -3.42317,-19.65031 c -0.81559,-0.16111 -1.84746,-0.48272 -2.29306,-0.71468 -1.09242,-0.5687 -2.72853,-2.16884 -2.74064,-2.68038 -0.005,-0.22765 -0.38465,-0.86265 -0.84281,-1.41111 -0.8626,-1.03264 -2.38323,-4.66133 -4.63113,-11.05137 -1.72997,-4.91772 -1.63358,-4.68451 -3.35352,-8.11389 -0.82714,-1.64924 -1.91998,-3.45186 -2.42853,-4.00582 -1.28805,-1.40307 -4.41406,-2.7715 -6.89485,-3.01827 l -2.08965,-0.20785 1.43221,-0.99035 c 1.5468,-1.06957 5.31147,-2.35399 6.9124,-2.35835 1.72563,-0.005 4.25283,0.7809 5.71247,1.77575 1.63175,1.11217 3.92377,3.83335 3.77488,4.48172 -0.0559,0.24344 0.11427,0.44261 0.37817,0.44261 0.53171,0 3.78445,6.24176 3.78445,7.26208 0,0.15195 0.30609,0.92171 0.6802,1.71057 0.37412,0.78887 1.08633,2.44854 1.5827,3.68817 1.00279,2.50434 2.57055,5.33152 2.95544,5.32962 0.85183,-0.004 3.83204,-7.97894 5.40479,-14.46266 1.9193,-7.91232 5.01161,-18.44694 6.10967,-20.81389 2.30114,-4.96024 4.60601,-7.03734 8.12223,-7.31959 1.95377,-0.15683 2.44243,-0.0601 4.01261,0.79453 2.49546,1.35819 3.31044,2.35029 5.40102,6.57479 0.93741,1.89425 3.29625,9.1126 4.36446,13.35583 0.51289,2.03729 1.21262,4.57729 1.55498,5.64444 0.34236,1.06716 0.83543,2.65466 1.09573,3.52778 0.96371,3.23267 3.75139,8.2344 5.51689,9.89856 2.09506,1.9748 4.10606,3.2977 5.85136,3.84922 0.72761,0.22993 1.32292,0.49404 1.32292,0.58692 0,0.0929 -0.71641,0.48577 -1.59202,0.87309 -2.29705,1.01609 -6.48839,1.02714 -8.75823,0.0231 -3.42674,-1.51581 -6.17101,-4.45149 -8.36088,-8.94406 -0.59782,-1.22642 -1.23412,-2.50231 -1.41401,-2.8353 -0.17988,-0.333 -0.47718,-1.20612 -0.66066,-1.94028 -0.74987,-3.00045 -6.42415,-19.25706 -6.99617,-20.04376 -0.79895,-1.09881 -0.87818,-1.08476 -1.55823,0.27628 -1.1693,2.3402 -2.07427,5.18987 -3.61302,11.37709 -3.03871,12.21839 -6.36478,22.38234 -8.0081,24.47148 -0.36655,0.466 -0.66646,0.99153 -0.66646,1.16785 0,0.86017 -2.61454,3.05174 -4.28395,3.59089 -1.94625,0.62857 -2.53141,0.65417 -4.78366,0.20926 z m 49.82815,-13.29265 c -2.77991,-0.70614 -6.29714,-6.05076 -8.15323,-12.38927 -0.30389,-1.03778 -0.47868,-1.96073 -0.38841,-2.051 0.0903,-0.0903 1.5695,-0.22877 3.28719,-0.30779 8.47079,-0.38969 9.78292,-0.63406 14.05919,-2.61837 3.78653,-1.75706 9.09259,-6.79386 10.56941,-10.03304 3.78708,-8.30644 4.33485,-14.20262 2.08448,-22.4376404 -1.15336,-4.22063002 -3.6401,-8.21361 -6.73205,-10.80969 -1.12271,-0.94265 -2.12066,-1.8146 -2.21767,-1.93765 -0.3794,-0.48123 -4.30858,-2.4333296 -6.41876,-3.1889796 -2.16778,-0.77628 -2.64336,-0.79956 -18.71666,-0.91597 l -16.49236,-0.11945 V -0.68605142 10.798429 h -0.8256 c -1.53109,0 -5.09758,2.09614 -6.79456,3.99338 -1.65639,1.85186 -4.54446,7.43871 -5.41264,10.47051 -0.25002,0.87312 -0.58222,1.98437 -0.73823,2.46944 -0.39136,1.2169 -2.0765,7.30176 -3.12634,11.28889 -0.2052,0.7793 -0.33685,-11.27627 -0.35693,-32.6846104 l -0.0318,-33.9193396 1.55319,-0.12371 c 0.85426,-0.068 12.32395,-0.10028 25.4882,-0.0716 20.69377,0.045 24.2694,0.12953 26.40444,0.62402 3.9887,0.92382 7.58472,2.04932 7.58472,2.3739 0,0.16576 0.52886,0.30139 1.17524,0.30139 2.09331,0 10.76432,4.87704 10.22435,5.75072 -0.12186,0.19718 -0.0447,0.24734 0.17328,0.11263 0.60692,-0.3751 4.21691,3.0333 6.9953,6.60467 2.06429,2.6534496 4.63504,8.4775396 5.94174,13.4611396 1.7681,6.7433 1.74625,15.8657704 -0.0549,22.9305504 -2.11084,8.27937 -4.97852,13.41407 -10.75456,19.25647 -2.59968,2.62955 -8.78375,7.02548 -9.88326,7.02548 -0.27557,0 -0.68644,0.1854 -0.91304,0.412 -0.39593,0.39593 -0.78905,0.56749 -4.31522,1.88319 -3.68968,1.37672 -10.83412,2.28545 -13.21446,1.68081 z m 7.57002,-15.26489 c 0,-0.19403 -0.07,-0.35278 -0.15557,-0.35278 -0.0856,0 -0.25368,0.15875 -0.3736,0.35278 -0.11992,0.19403 -0.0499,0.35278 0.15557,0.35278 0.20548,0 0.3736,-0.15875 0.3736,-0.35278 z"
       id="path1" /></g></svg>
